<svg xmlns="http://www.w3.org/2000/svg" id="svg3767" viewBox="0 0 455.881 455.881">
  <g id="Lightbulb">
    <path id="LightBulbFill" fill="#ff0" d="M321.2 257.6c15.5-20.5 23.7-45 23.7-70.7 0-31.6-12.4-61.2-35-83.4-22.4-22-52.2-34-83.7-33.6-30.6.4-59.5 12.7-81.2 34.5-21.6 22-33.8 50.8-34 81.3-.3 26.3 8 51 23.8 72 25.7 33.7 40 75 40 116.4v45.3c0 20 16.2 36.4 36.3 36.4h34c20 0 36.3-16.4 36.3-36.5v-45.3c0-41.8 13.7-82 40-116.6zM189.7 414.4v-6l76.6 8.7v2.5c0 1.2 0 2.5-.3 3.6zm0-21.2v-6.8h76.6V402zM211 441c-8 0-15-4.6-18.6-11.2l64.5 7.4c-3.5 2.3-7.6 3.7-12 3.7h-34z"/>
    <path id="Outline" d="M321.2 257.6c15.5-20.5 23.7-45 23.7-70.7 0-31.6-12.4-61.2-35-83.4-22.4-22-52.2-34-83.7-33.6-30.6.4-59.5 12.7-81.2 34.5-21.6 22-33.8 50.8-34 81.3-.3 26.3 8 51 23.8 72 25.7 33.7 40 75 40 116.4v45.3c0 20 16.2 36.4 36.3 36.4h34c20 0 36.3-16.4 36.3-36.5v-45.3c0-41.8 13.7-82 40-116.6zm-174.5-9c-13.8-18-21-39.7-20.7-62.6.4-55 45.5-100.3 100.5-101 27.5-.4 53.5 10 73 29.3 19.6 19.3 30.4 45 30.4 72.6 0 22.4-7.2 43.7-20.7 61.5-27.6 36.4-42.5 78.8-43 123h-76.6c-.7-43.7-15.8-87.2-43-122.8zm43 165.8v-6l76.6 8.7v2.5c0 1.2 0 2.5-.3 3.6zm0-21.2v-6.8h76.6V402zM211 441c-8 0-15-4.6-18.6-11.2l64.5 7.4c-3.5 2.3-7.6 3.7-12 3.7h-34z"/>
    <g id="Shimmers">
      <path id="path3739" d="M153.8 198.2c-.6-4-1-8-1-12 .2-4-3-7.5-7.3-7.5-4 0-7.5 3.3-7.5 7.4 0 5 .2 9.7 1 14.4.5 3.7 3.7 6.4 7.3 6.4h1.2c4-.7 7-4.5 6.3-8.6z"/>
      <path id="path3741" d="M198 312c.7 0 1.5 0 2.3-.2 4-1.3 6-5.6 4.7-9.5-8.3-25.3-20.7-48.8-36.8-70-2.6-3.5-5-7.2-7-11s-6.4-5.2-10-3.3c-3.8 2-5.2 6.4-3.3 10 2.3 4.7 5 9.2 8.3 13.4 15 19.8 26.7 42 34.5 65.6 1 3 4 5 7 5z"/>
      <path id="path3743" d="M306.7 212.6c-3.8-1.6-8.2 0-9.8 4-2.5 5.5-5.6 10.7-9.2 15.6-2.6 3.3-2 8 1.4 10.5 1.4 1 3 1.5 4.5 1.5 2.3 0 4.5-1 6-3 4.4-5.8 8-12 11-18.7 1.6-3.8 0-8.2-4-10z"/>
      <path id="path3745" d="M228 112c41.3 0 75 33.6 75 75 0 2.3-.2 4.7-.4 7-.4 4 2.7 7.7 6.8 8l.7.2c4 0 7.2-3 7.6-7 .2-2.6.3-5.5.3-8.3 0-49.7-40.4-90-90-90-4.2 0-7.6 3.3-7.6 7.4 0 4.2 3.4 7.5 7.5 7.5z"/>
    </g>
    <g id="Flares">
      <path id="path3747" d="M228 57c4 0 7.4-3.4 7.4-7.5v-42c0-4-3.3-7.5-7.5-7.5s-7.6 3.4-7.6 7.5v42c0 4 3.4 7.5 7.5 7.5z"/>
      <path id="path3749" d="M152 71.8c1.5 2.4 4 3.8 6.6 3.8 1.2 0 2.5-.4 3.7-1 3.6-2 4.8-6.7 2.8-10.3L144 28c-2-3.6-6.6-5-10.2-2.8-3.6 2-4.8 6.7-2.7 10.3z"/>
      <path id="path3751" d="M388.2 272L352 251c-3.7-2-8.3-.7-10.4 3-2 3.5-.8 8 2.8 10l36.3 21c1.2.8 2.5 1 3.8 1 2.6 0 5-1.2 6.5-3.6 2-3.6.8-8.2-2.8-10.3z"/>
      <path id="path3753" d="M67.7 104.4l36.3 21c1.2.6 2.5 1 3.8 1 2.6 0 5-1.4 6.5-3.8 2-3.6.8-8.2-2.8-10.2l-36.3-21c-3.6-2-8.2-1-10.3 2.7-2.2 3.7-1 8.3 2.7 10.4z"/>
      <path id="path3755" d="M408.7 180.7h-42c-4.2 0-7.5 3.4-7.5 7.5 0 4.2 3.3 7.5 7.5 7.5h42c4 0 7.5-3.3 7.5-7.5 0-4-3.4-7.5-7.5-7.5z"/>
      <path id="path3757" d="M96.7 188.2c0-4-3.4-7.5-7.5-7.5h-42c-4 0-7.5 3.4-7.5 7.5 0 4.2 3.4 7.5 7.5 7.5h42c4 0 7.5-3.3 7.5-7.5z"/>
      <path id="path3759" d="M348 126.4c1.4 0 2.7-.4 4-1l36.2-21c3.6-2 4.8-6.7 2.8-10.3-2-3.5-6.7-4.7-10.3-2.6l-36.3 21c-3.6 2-5 6.6-2.8 10.2 1.4 2.4 4 3.8 6.5 3.8z"/>
      <path id="path3761" d="M104 251l-36.3 21c-3.6 2.2-5 6.8-2.8 10.4 1.3 2.4 3.8 3.7 6.4 3.7 1.3 0 2.6-.2 3.8-1l36.3-21c3.6-2 4.8-6.5 2.8-10-2-3.7-6.7-5-10.3-3z"/>
      <path id="path3763" d="M293.6 74.6c1.2.6 2.4 1 3.7 1 2.6 0 5-1.4 6.5-3.8l21-36.3c2-3.6.8-8.2-2.7-10.3-3.5-2-8-.8-10.2 2.8l-21 36.3c-2 3.6-.8 8.2 2.8 10.3z"/>
    </g>
  </g>
</svg>
